<svg width="193" height="24" viewBox="0 0 193 24" fill="none" xmlns="http://www.w3.org/2000/svg">
<g filter="url(#filter0_b_30_20)">
<path d="M14.8469 23H0.139847V1.99414H4.34395V18.7959H14.8469V23ZM23.3494 19.1621C23.5057 19.2109 23.6619 19.2451 23.8182 19.2646C23.9744 19.2744 24.1307 19.2793 24.2869 19.2793C24.6775 19.2793 25.0535 19.2256 25.4148 19.1182C25.7762 19.0107 26.1131 18.8594 26.4256 18.6641C26.7479 18.459 27.0311 18.2148 27.2752 17.9316C27.5291 17.6387 27.7342 17.3164 27.8904 16.9648L30.8201 19.9092C30.449 20.4365 30.0193 20.9102 29.5311 21.3301C29.0525 21.75 28.5301 22.1064 27.9637 22.3994C27.407 22.6924 26.8162 22.9121 26.1912 23.0586C25.576 23.2148 24.9412 23.293 24.2869 23.293C23.1834 23.293 22.1434 23.0879 21.1668 22.6777C20.2 22.2676 19.3504 21.6963 18.618 20.9639C17.8953 20.2314 17.324 19.3623 16.9041 18.3564C16.4842 17.3408 16.2742 16.2275 16.2742 15.0166C16.2742 13.7764 16.4842 12.6436 16.9041 11.6182C17.324 10.5928 17.8953 9.71875 18.618 8.99609C19.3504 8.27344 20.2 7.71191 21.1668 7.31152C22.1434 6.91113 23.1834 6.71094 24.2869 6.71094C24.9412 6.71094 25.5809 6.78906 26.2059 6.94531C26.8309 7.10156 27.4217 7.32617 27.9783 7.61914C28.5447 7.91211 29.0721 8.27344 29.5604 8.70312C30.0486 9.12305 30.4783 9.59668 30.8494 10.124L23.3494 19.1621ZM25.4002 10.915C25.2147 10.8467 25.0291 10.8027 24.8436 10.7832C24.6678 10.7637 24.4822 10.7539 24.2869 10.7539C23.74 10.7539 23.2225 10.8564 22.7342 11.0615C22.2557 11.2568 21.8357 11.54 21.4744 11.9111C21.1229 12.2822 20.8445 12.7314 20.6395 13.2588C20.4344 13.7764 20.3318 14.3623 20.3318 15.0166C20.3318 15.1631 20.3367 15.3291 20.3465 15.5146C20.366 15.7002 20.3904 15.8906 20.4197 16.0859C20.4588 16.2715 20.5027 16.4521 20.5516 16.6279C20.6004 16.8037 20.6639 16.96 20.742 17.0967L25.4002 10.915ZM53.7221 23H49.7377V13.0391C49.7377 12.7656 49.684 12.5068 49.5766 12.2627C49.4789 12.0186 49.3373 11.8037 49.1518 11.6182C48.9662 11.4326 48.7514 11.291 48.5072 11.1934C48.2631 11.0859 48.0043 11.0322 47.7309 11.0322C47.4574 11.0322 47.1986 11.0859 46.9545 11.1934C46.7201 11.291 46.5102 11.4326 46.3246 11.6182C46.1488 11.8037 46.0072 12.0186 45.8998 12.2627C45.8022 12.5068 45.7533 12.7656 45.7533 13.0391V23H41.7543V13.0391C41.7543 12.7656 41.7006 12.5068 41.5932 12.2627C41.4955 12.0186 41.3539 11.8037 41.1684 11.6182C40.9828 11.4326 40.768 11.291 40.5238 11.1934C40.2797 11.0859 40.0209 11.0322 39.7475 11.0322C39.474 11.0322 39.2152 11.0859 38.9711 11.1934C38.7367 11.291 38.5268 11.4326 38.3412 11.6182C38.1654 11.8037 38.0238 12.0186 37.9164 12.2627C37.8188 12.5068 37.7699 12.7656 37.7699 13.0391V23H33.7709V7.31152H34.7377L35.8217 8.5127C36.3783 8.04395 36.9887 7.68262 37.6527 7.42871C38.3266 7.16504 39.0248 7.0332 39.7475 7.0332C40.4799 7.0332 41.1928 7.16992 41.8861 7.44336C42.5893 7.7168 43.2045 8.19043 43.7318 8.86426C43.976 8.53223 44.2543 8.24902 44.5668 8.01465C44.8793 7.78027 45.2064 7.58984 45.5482 7.44336C45.8998 7.29688 46.2611 7.19434 46.6322 7.13574C47.0033 7.06738 47.3695 7.0332 47.7309 7.0332C48.5609 7.0332 49.3373 7.18945 50.06 7.50195C50.7924 7.81445 51.4272 8.24414 51.9643 8.79102C52.5111 9.32812 52.9408 9.96289 53.2533 10.6953C53.5658 11.4277 53.7221 12.209 53.7221 13.0391V23ZM72.7129 15.0166C72.7129 16.1885 72.5029 17.2822 72.083 18.2979C71.6631 19.3037 71.0918 20.1777 70.3691 20.9199C69.6465 21.6523 68.7969 22.2334 67.8203 22.6631C66.8535 23.083 65.8135 23.293 64.7002 23.293C63.5967 23.293 62.5566 23.083 61.5801 22.6631C60.6133 22.2334 59.7637 21.6523 59.0313 20.9199C58.3086 20.1777 57.7373 19.3037 57.3174 18.2979C56.8975 17.2822 56.6875 16.1885 56.6875 15.0166C56.6875 13.8252 56.8975 12.7217 57.3174 11.7061C57.7373 10.6904 58.3086 9.81641 59.0313 9.08398C59.7637 8.3418 60.6133 7.76074 61.5801 7.34082C62.5566 6.9209 63.5967 6.71094 64.7002 6.71094C65.8135 6.71094 66.8535 6.91113 67.8203 7.31152C68.7969 7.70215 69.6465 8.26367 70.3691 8.99609C71.0918 9.71875 71.6631 10.5928 72.083 11.6182C72.5029 12.6338 72.7129 13.7666 72.7129 15.0166ZM68.6846 15.0166C68.6846 14.3721 68.5772 13.791 68.3623 13.2734C68.1572 12.7461 67.874 12.2969 67.5127 11.9258C67.1514 11.5449 66.7266 11.2568 66.2383 11.0615C65.7598 10.8564 65.2471 10.7539 64.7002 10.7539C64.1533 10.7539 63.6357 10.8564 63.1475 11.0615C62.6689 11.2568 62.249 11.5449 61.8877 11.9258C61.5361 12.2969 61.2578 12.7461 61.0527 13.2734C60.8477 13.791 60.7451 14.3721 60.7451 15.0166C60.7451 15.6221 60.8477 16.1836 61.0527 16.7012C61.2578 17.2188 61.5361 17.668 61.8877 18.0488C62.249 18.4297 62.6689 18.7324 63.1475 18.957C63.6357 19.1719 64.1533 19.2793 64.7002 19.2793C65.2471 19.2793 65.7598 19.1768 66.2383 18.9717C66.7266 18.7666 67.1514 18.4785 67.5127 18.1074C67.874 17.7363 68.1572 17.2871 68.3623 16.7598C68.5772 16.2324 68.6846 15.6514 68.6846 15.0166ZM79.8238 23H75.8248V7.31152H76.7916L78.11 8.83496C78.7545 8.24902 79.482 7.7998 80.2926 7.4873C81.1129 7.16504 81.9674 7.00391 82.8561 7.00391C83.8131 7.00391 84.7164 7.18945 85.566 7.56055C86.4156 7.92188 87.1578 8.4248 87.7926 9.06934C88.4273 9.7041 88.9254 10.4512 89.2867 11.3105C89.6578 12.1602 89.8434 13.0684 89.8434 14.0352V23H85.8443V14.0352C85.8443 13.625 85.7662 13.2393 85.61 12.8779C85.4537 12.5068 85.2389 12.1846 84.9654 11.9111C84.692 11.6377 84.3746 11.4229 84.0133 11.2666C83.652 11.1104 83.2662 11.0322 82.8561 11.0322C82.4361 11.0322 82.0406 11.1104 81.6695 11.2666C81.2984 11.4229 80.9762 11.6377 80.7027 11.9111C80.4293 12.1846 80.2145 12.5068 80.0582 12.8779C79.902 13.2393 79.8238 13.625 79.8238 14.0352V23Z" fill="#EDC045"/>
<path d="M115.462 10.4023V14.3867H103.157V10.4023H115.462Z" fill="#E3A445"/>
<path d="M144.127 23H129.42V1.99414H133.624V18.7959H144.127V23ZM151.516 3.04883C151.516 3.41992 151.443 3.7666 151.296 4.08887C151.16 4.41113 150.969 4.69434 150.725 4.93848C150.481 5.17285 150.193 5.36328 149.861 5.50977C149.539 5.64648 149.192 5.71484 148.821 5.71484C148.45 5.71484 148.098 5.64648 147.766 5.50977C147.444 5.36328 147.161 5.17285 146.917 4.93848C146.682 4.69434 146.492 4.41113 146.345 4.08887C146.209 3.7666 146.14 3.41992 146.14 3.04883C146.14 2.6875 146.209 2.3457 146.345 2.02344C146.492 1.69141 146.682 1.4082 146.917 1.17383C147.161 0.929687 147.444 0.739258 147.766 0.602539C148.098 0.456055 148.45 0.382812 148.821 0.382812C149.192 0.382812 149.539 0.456055 149.861 0.602539C150.193 0.739258 150.481 0.929687 150.725 1.17383C150.969 1.4082 151.16 1.69141 151.296 2.02344C151.443 2.3457 151.516 2.6875 151.516 3.04883ZM150.828 23H146.799V7.31152H150.828V23ZM174.74 23H170.756V13.0391C170.756 12.7656 170.702 12.5068 170.595 12.2627C170.497 12.0186 170.356 11.8037 170.17 11.6182C169.985 11.4326 169.77 11.291 169.526 11.1934C169.281 11.0859 169.023 11.0322 168.749 11.0322C168.476 11.0322 168.217 11.0859 167.973 11.1934C167.738 11.291 167.529 11.4326 167.343 11.6182C167.167 11.8037 167.026 12.0186 166.918 12.2627C166.821 12.5068 166.772 12.7656 166.772 13.0391V23H162.773V13.0391C162.773 12.7656 162.719 12.5068 162.612 12.2627C162.514 12.0186 162.372 11.8037 162.187 11.6182C162.001 11.4326 161.786 11.291 161.542 11.1934C161.298 11.0859 161.039 11.0322 160.766 11.0322C160.492 11.0322 160.234 11.0859 159.989 11.1934C159.755 11.291 159.545 11.4326 159.36 11.6182C159.184 11.8037 159.042 12.0186 158.935 12.2627C158.837 12.5068 158.788 12.7656 158.788 13.0391V23H154.789V7.31152H155.756L156.84 8.5127C157.397 8.04395 158.007 7.68262 158.671 7.42871C159.345 7.16504 160.043 7.0332 160.766 7.0332C161.498 7.0332 162.211 7.16992 162.904 7.44336C163.608 7.7168 164.223 8.19043 164.75 8.86426C164.994 8.53223 165.273 8.24902 165.585 8.01465C165.898 7.78027 166.225 7.58984 166.567 7.44336C166.918 7.29688 167.279 7.19434 167.651 7.13574C168.022 7.06738 168.388 7.0332 168.749 7.0332C169.579 7.0332 170.356 7.18945 171.078 7.50195C171.811 7.81445 172.446 8.24414 172.983 8.79102C173.529 9.32812 173.959 9.96289 174.272 10.6953C174.584 11.4277 174.74 12.209 174.74 13.0391V23ZM184.81 19.1621C184.967 19.2109 185.123 19.2451 185.279 19.2646C185.435 19.2744 185.592 19.2793 185.748 19.2793C186.138 19.2793 186.514 19.2256 186.876 19.1182C187.237 19.0107 187.574 18.8594 187.887 18.6641C188.209 18.459 188.492 18.2148 188.736 17.9316C188.99 17.6387 189.195 17.3164 189.351 16.9648L192.281 19.9092C191.91 20.4365 191.48 20.9102 190.992 21.3301C190.513 21.75 189.991 22.1064 189.425 22.3994C188.868 22.6924 188.277 22.9121 187.652 23.0586C187.037 23.2148 186.402 23.293 185.748 23.293C184.644 23.293 183.604 23.0879 182.628 22.6777C181.661 22.2676 180.811 21.6963 180.079 20.9639C179.356 20.2314 178.785 19.3623 178.365 18.3564C177.945 17.3408 177.735 16.2275 177.735 15.0166C177.735 13.7764 177.945 12.6436 178.365 11.6182C178.785 10.5928 179.356 9.71875 180.079 8.99609C180.811 8.27344 181.661 7.71191 182.628 7.31152C183.604 6.91113 184.644 6.71094 185.748 6.71094C186.402 6.71094 187.042 6.78906 187.667 6.94531C188.292 7.10156 188.883 7.32617 189.439 7.61914C190.006 7.91211 190.533 8.27344 191.021 8.70312C191.51 9.12305 191.939 9.59668 192.31 10.124L184.81 19.1621ZM186.861 10.915C186.676 10.8467 186.49 10.8027 186.304 10.7832C186.129 10.7637 185.943 10.7539 185.748 10.7539C185.201 10.7539 184.683 10.8564 184.195 11.0615C183.717 11.2568 183.297 11.54 182.935 11.9111C182.584 12.2822 182.305 12.7314 182.1 13.2588C181.895 13.7764 181.793 14.3623 181.793 15.0166C181.793 15.1631 181.798 15.3291 181.807 15.5146C181.827 15.7002 181.851 15.8906 181.881 16.0859C181.92 16.2715 181.964 16.4521 182.012 16.6279C182.061 16.8037 182.125 16.96 182.203 17.0967L186.861 10.915Z" fill="#A1AA2D"/>
</g>
<defs>
<filter id="filter0_b_30_20" x="-3.86017" y="-3.61719" width="200.171" height="30.9102" filterUnits="userSpaceOnUse" color-interpolation-filters="sRGB">
<feFlood flood-opacity="0" result="BackgroundImageFix"/>
<feGaussianBlur in="BackgroundImageFix" stdDeviation="2"/>
<feComposite in2="SourceAlpha" operator="in" result="effect1_backgroundBlur_30_20"/>
<feBlend mode="normal" in="SourceGraphic" in2="effect1_backgroundBlur_30_20" result="shape"/>
</filter>
</defs>
</svg>
