<svg width="385" height="47" viewBox="0 0 385 47" fill="none" xmlns="http://www.w3.org/2000/svg">
<g filter="url(#filter0_b_30_20)">
<path d="M29.6938 46H0.279694V3.98828H8.6879V37.5918H29.6938V46ZM46.6988 38.3242C47.0113 38.4219 47.3238 38.4902 47.6363 38.5293C47.9488 38.5488 48.2613 38.5586 48.5738 38.5586C49.3551 38.5586 50.107 38.4512 50.8297 38.2363C51.5523 38.0215 52.2262 37.7188 52.8512 37.3281C53.4957 36.918 54.0621 36.4297 54.5504 35.8633C55.0582 35.2773 55.4684 34.6328 55.7809 33.9297L61.6402 39.8184C60.8981 40.873 60.0387 41.8203 59.0621 42.6602C58.1051 43.5 57.0602 44.2129 55.9273 44.7988C54.8141 45.3848 53.6324 45.8242 52.3824 46.1172C51.152 46.4297 49.8824 46.5859 48.5738 46.5859C46.3668 46.5859 44.2867 46.1758 42.3336 45.3555C40.4 44.5352 38.7008 43.3926 37.2359 41.9277C35.7906 40.4629 34.6481 38.7246 33.8082 36.7129C32.9684 34.6816 32.5484 32.4551 32.5484 30.0332C32.5484 27.5527 32.9684 25.2871 33.8082 23.2363C34.6481 21.1855 35.7906 19.4375 37.2359 17.9922C38.7008 16.5469 40.4 15.4238 42.3336 14.623C44.2867 13.8223 46.3668 13.4219 48.5738 13.4219C49.8824 13.4219 51.1617 13.5781 52.4117 13.8906C53.6617 14.2031 54.8434 14.6523 55.9566 15.2383C57.0895 15.8242 58.1441 16.5469 59.1207 17.4062C60.0973 18.2461 60.9566 19.1934 61.6988 20.248L46.6988 38.3242ZM50.8004 21.8301C50.4293 21.6934 50.0582 21.6055 49.6871 21.5664C49.3356 21.5273 48.9645 21.5078 48.5738 21.5078C47.4801 21.5078 46.4449 21.7129 45.4684 22.123C44.5113 22.5137 43.6715 23.0801 42.9488 23.8223C42.2457 24.5645 41.6891 25.4629 41.2789 26.5176C40.8688 27.5527 40.6637 28.7246 40.6637 30.0332C40.6637 30.3262 40.6734 30.6582 40.693 31.0293C40.732 31.4004 40.7809 31.7812 40.8395 32.1719C40.9176 32.543 41.0055 32.9043 41.1031 33.2559C41.2008 33.6074 41.3277 33.9199 41.484 34.1934L50.8004 21.8301ZM107.444 46H99.4754V26.0781C99.4754 25.5312 99.368 25.0137 99.1531 24.5254C98.9578 24.0371 98.6746 23.6074 98.3035 23.2363C97.9324 22.8652 97.5027 22.582 97.0145 22.3867C96.5262 22.1719 96.0086 22.0645 95.4617 22.0645C94.9148 22.0645 94.3973 22.1719 93.909 22.3867C93.4402 22.582 93.0203 22.8652 92.6492 23.2363C92.2977 23.6074 92.0145 24.0371 91.7996 24.5254C91.6043 25.0137 91.5066 25.5312 91.5066 26.0781V46H83.5086V26.0781C83.5086 25.5312 83.4012 25.0137 83.1863 24.5254C82.991 24.0371 82.7078 23.6074 82.3367 23.2363C81.9656 22.8652 81.5359 22.582 81.0477 22.3867C80.5594 22.1719 80.0418 22.0645 79.4949 22.0645C78.9481 22.0645 78.4305 22.1719 77.9422 22.3867C77.4734 22.582 77.0535 22.8652 76.6824 23.2363C76.3309 23.6074 76.0477 24.0371 75.8328 24.5254C75.6375 25.0137 75.5398 25.5312 75.5398 26.0781V46H67.5418V14.623H69.4754L71.6434 17.0254C72.7566 16.0879 73.9773 15.3652 75.3055 14.8574C76.6531 14.3301 78.0496 14.0664 79.4949 14.0664C80.9598 14.0664 82.3856 14.3398 83.7723 14.8867C85.1785 15.4336 86.409 16.3809 87.4637 17.7285C87.952 17.0645 88.5086 16.498 89.1336 16.0293C89.7586 15.5605 90.4129 15.1797 91.0965 14.8867C91.7996 14.5938 92.5223 14.3887 93.2645 14.2715C94.0066 14.1348 94.7391 14.0664 95.4617 14.0664C97.1219 14.0664 98.6746 14.3789 100.12 15.0039C101.585 15.6289 102.854 16.4883 103.929 17.582C105.022 18.6562 105.882 19.9258 106.507 21.3906C107.132 22.8555 107.444 24.418 107.444 26.0781V46ZM145.426 30.0332C145.426 32.377 145.006 34.5645 144.166 36.5957C143.326 38.6074 142.184 40.3555 140.738 41.8398C139.293 43.3047 137.594 44.4668 135.641 45.3262C133.707 46.166 131.627 46.5859 129.4 46.5859C127.193 46.5859 125.113 46.166 123.16 45.3262C121.227 44.4668 119.527 43.3047 118.063 41.8398C116.617 40.3555 115.475 38.6074 114.635 36.5957C113.795 34.5645 113.375 32.377 113.375 30.0332C113.375 27.6504 113.795 25.4434 114.635 23.4121C115.475 21.3809 116.617 19.6328 118.063 18.168C119.527 16.6836 121.227 15.5215 123.16 14.6816C125.113 13.8418 127.193 13.4219 129.4 13.4219C131.627 13.4219 133.707 13.8223 135.641 14.623C137.594 15.4043 139.293 16.5273 140.738 17.9922C142.184 19.4375 143.326 21.1855 144.166 23.2363C145.006 25.2676 145.426 27.5332 145.426 30.0332ZM137.369 30.0332C137.369 28.7441 137.154 27.582 136.725 26.5469C136.314 25.4922 135.748 24.5938 135.025 23.8516C134.303 23.0898 133.453 22.5137 132.477 22.123C131.52 21.7129 130.494 21.5078 129.4 21.5078C128.307 21.5078 127.271 21.7129 126.295 22.123C125.338 22.5137 124.498 23.0898 123.775 23.8516C123.072 24.5938 122.516 25.4922 122.105 26.5469C121.695 27.582 121.49 28.7441 121.49 30.0332C121.49 31.2441 121.695 32.3672 122.105 33.4023C122.516 34.4375 123.072 35.3359 123.775 36.0977C124.498 36.8594 125.338 37.4648 126.295 37.9141C127.271 38.3438 128.307 38.5586 129.4 38.5586C130.494 38.5586 131.52 38.3535 132.477 37.9434C133.453 37.5332 134.303 36.957 135.025 36.2148C135.748 35.4727 136.314 34.5742 136.725 33.5195C137.154 32.4648 137.369 31.3027 137.369 30.0332ZM159.648 46H151.65V14.623H153.583L156.22 17.6699C157.509 16.498 158.964 15.5996 160.585 14.9746C162.226 14.3301 163.935 14.0078 165.712 14.0078C167.626 14.0078 169.433 14.3789 171.132 15.1211C172.831 15.8438 174.316 16.8496 175.585 18.1387C176.855 19.4082 177.851 20.9023 178.573 22.6211C179.316 24.3203 179.687 26.1367 179.687 28.0703V46H171.689V28.0703C171.689 27.25 171.532 26.4785 171.22 25.7559C170.907 25.0137 170.478 24.3691 169.931 23.8223C169.384 23.2754 168.749 22.8457 168.027 22.5332C167.304 22.2207 166.532 22.0645 165.712 22.0645C164.872 22.0645 164.081 22.2207 163.339 22.5332C162.597 22.8457 161.952 23.2754 161.405 23.8223C160.859 24.3691 160.429 25.0137 160.116 25.7559C159.804 26.4785 159.648 27.25 159.648 28.0703V46Z" fill="#EDC045"/>
<path d="M230.923 20.8047V28.7734H206.314V20.8047H230.923Z" fill="#E3A445"/>
<path d="M288.254 46H258.84V3.98828H267.248V37.5918H288.254V46ZM303.032 6.09766C303.032 6.83984 302.886 7.5332 302.593 8.17773C302.32 8.82227 301.939 9.38867 301.45 9.87695C300.962 10.3457 300.386 10.7266 299.722 11.0195C299.077 11.293 298.384 11.4297 297.642 11.4297C296.9 11.4297 296.197 11.293 295.532 11.0195C294.888 10.7266 294.322 10.3457 293.833 9.87695C293.364 9.38867 292.984 8.82227 292.691 8.17773C292.417 7.5332 292.28 6.83984 292.28 6.09766C292.28 5.375 292.417 4.69141 292.691 4.04688C292.984 3.38281 293.364 2.81641 293.833 2.34766C294.322 1.85937 294.888 1.47852 295.532 1.20508C296.197 0.912109 296.9 0.765625 297.642 0.765625C298.384 0.765625 299.077 0.912109 299.722 1.20508C300.386 1.47852 300.962 1.85937 301.45 2.34766C301.939 2.81641 302.32 3.38281 302.593 4.04688C302.886 4.69141 303.032 5.375 303.032 6.09766ZM301.655 46H293.599V14.623H301.655V46ZM349.481 46H341.512V26.0781C341.512 25.5312 341.405 25.0137 341.19 24.5254C340.995 24.0371 340.711 23.6074 340.34 23.2363C339.969 22.8652 339.539 22.582 339.051 22.3867C338.563 22.1719 338.045 22.0645 337.498 22.0645C336.952 22.0645 336.434 22.1719 335.946 22.3867C335.477 22.582 335.057 22.8652 334.686 23.2363C334.334 23.6074 334.051 24.0371 333.836 24.5254C333.641 25.0137 333.543 25.5312 333.543 26.0781V46H325.545V26.0781C325.545 25.5312 325.438 25.0137 325.223 24.5254C325.028 24.0371 324.745 23.6074 324.373 23.2363C324.002 22.8652 323.573 22.582 323.084 22.3867C322.596 22.1719 322.079 22.0645 321.532 22.0645C320.985 22.0645 320.467 22.1719 319.979 22.3867C319.51 22.582 319.09 22.8652 318.719 23.2363C318.368 23.6074 318.084 24.0371 317.87 24.5254C317.674 25.0137 317.577 25.5312 317.577 26.0781V46H309.579V14.623H311.512L313.68 17.0254C314.793 16.0879 316.014 15.3652 317.342 14.8574C318.69 14.3301 320.086 14.0664 321.532 14.0664C322.996 14.0664 324.422 14.3398 325.809 14.8867C327.215 15.4336 328.446 16.3809 329.5 17.7285C329.989 17.0645 330.545 16.498 331.17 16.0293C331.795 15.5605 332.45 15.1797 333.133 14.8867C333.836 14.5938 334.559 14.3887 335.301 14.2715C336.043 14.1348 336.776 14.0664 337.498 14.0664C339.159 14.0664 340.711 14.3789 342.157 15.0039C343.621 15.6289 344.891 16.4883 345.965 17.582C347.059 18.6562 347.918 19.9258 348.543 21.3906C349.168 22.8555 349.481 24.418 349.481 26.0781V46ZM369.621 38.3242C369.933 38.4219 370.246 38.4902 370.558 38.5293C370.871 38.5488 371.183 38.5586 371.496 38.5586C372.277 38.5586 373.029 38.4512 373.752 38.2363C374.474 38.0215 375.148 37.7188 375.773 37.3281C376.418 36.918 376.984 36.4297 377.472 35.8633C377.98 35.2773 378.39 34.6328 378.703 33.9297L384.562 39.8184C383.82 40.873 382.961 41.8203 381.984 42.6602C381.027 43.5 379.982 44.2129 378.849 44.7988C377.736 45.3848 376.554 45.8242 375.304 46.1172C374.074 46.4297 372.804 46.5859 371.496 46.5859C369.289 46.5859 367.209 46.1758 365.255 45.3555C363.322 44.5352 361.623 43.3926 360.158 41.9277C358.712 40.4629 357.57 38.7246 356.73 36.7129C355.89 34.6816 355.47 32.4551 355.47 30.0332C355.47 27.5527 355.89 25.2871 356.73 23.2363C357.57 21.1855 358.712 19.4375 360.158 17.9922C361.623 16.5469 363.322 15.4238 365.255 14.623C367.209 13.8223 369.289 13.4219 371.496 13.4219C372.804 13.4219 374.084 13.5781 375.334 13.8906C376.584 14.2031 377.765 14.6523 378.879 15.2383C380.011 15.8242 381.066 16.5469 382.043 17.4062C383.019 18.2461 383.879 19.1934 384.621 20.248L369.621 38.3242ZM373.722 21.8301C373.351 21.6934 372.98 21.6055 372.609 21.5664C372.257 21.5273 371.886 21.5078 371.496 21.5078C370.402 21.5078 369.367 21.7129 368.39 22.123C367.433 22.5137 366.593 23.0801 365.871 23.8223C365.168 24.5645 364.611 25.4629 364.201 26.5176C363.791 27.5527 363.586 28.7246 363.586 30.0332C363.586 30.3262 363.595 30.6582 363.615 31.0293C363.654 31.4004 363.703 31.7812 363.761 32.1719C363.839 32.543 363.927 32.9043 364.025 33.2559C364.123 33.6074 364.25 33.9199 364.406 34.1934L373.722 21.8301Z" fill="#A1AA2D"/>
</g>
<defs>
<filter id="filter0_b_30_20" x="-3.72031" y="-3.23438" width="392.341" height="53.8203" filterUnits="userSpaceOnUse" color-interpolation-filters="sRGB">
<feFlood flood-opacity="0" result="BackgroundImageFix"/>
<feGaussianBlur in="BackgroundImageFix" stdDeviation="2"/>
<feComposite in2="SourceAlpha" operator="in" result="effect1_backgroundBlur_30_20"/>
<feBlend mode="normal" in="SourceGraphic" in2="effect1_backgroundBlur_30_20" result="shape"/>
</filter>
</defs>
</svg>
