<?xml version="1.0" standalone="no"?>
<svg xmlns:xlink="http://www.w3.org/1999/xlink" id="wave" style="transform:rotate(180deg); transition: 0.3s" viewBox="0 0 1440 380" version="1.1" xmlns="http://www.w3.org/2000/svg"><defs><linearGradient id="sw-gradient-0" x1="0" x2="0" y1="1" y2="0"><stop stop-color="rgba(251.941, 200.756, 124.548, 1)" offset="0%"/><stop stop-color="rgba(247.387, 154.624, 14.743, 1)" offset="100%"/></linearGradient></defs><path style="transform:translate(0, 0px); opacity:1" fill="url(#sw-gradient-0)" d="M0,228L120,209C240,190,480,152,720,171C960,190,1200,266,1440,278.7C1680,291,1920,241,2160,234.3C2400,228,2640,266,2880,247C3120,228,3360,152,3600,145.7C3840,139,4080,203,4320,221.7C4560,241,4800,215,5040,228C5280,241,5520,291,5760,266C6000,241,6240,139,6480,88.7C6720,38,6960,38,7200,31.7C7440,25,7680,13,7920,63.3C8160,114,8400,228,8640,259.7C8880,291,9120,241,9360,240.7C9600,241,9840,291,10080,297.7C10320,304,10560,266,10800,215.3C11040,165,11280,101,11520,114C11760,127,12000,215,12240,215.3C12480,215,12720,127,12960,120.3C13200,114,13440,190,13680,202.7C13920,215,14160,165,14400,152C14640,139,14880,165,15120,152C15360,139,15600,89,15840,76C16080,63,16320,89,16560,114C16800,139,17040,165,17160,177.3L17280,190L17280,380L17160,380C17040,380,16800,380,16560,380C16320,380,16080,380,15840,380C15600,380,15360,380,15120,380C14880,380,14640,380,14400,380C14160,380,13920,380,13680,380C13440,380,13200,380,12960,380C12720,380,12480,380,12240,380C12000,380,11760,380,11520,380C11280,380,11040,380,10800,380C10560,380,10320,380,10080,380C9840,380,9600,380,9360,380C9120,380,8880,380,8640,380C8400,380,8160,380,7920,380C7680,380,7440,380,7200,380C6960,380,6720,380,6480,380C6240,380,6000,380,5760,380C5520,380,5280,380,5040,380C4800,380,4560,380,4320,380C4080,380,3840,380,3600,380C3360,380,3120,380,2880,380C2640,380,2400,380,2160,380C1920,380,1680,380,1440,380C1200,380,960,380,720,380C480,380,240,380,120,380L0,380Z"/><defs><linearGradient id="sw-gradient-1" x1="0" x2="0" y1="1" y2="0"><stop stop-color="rgba(243, 206.433, 62, 1)" offset="0%"/><stop stop-color="rgba(254.946, 255, 211.008, 1)" offset="100%"/></linearGradient></defs><path style="transform:translate(0, 50px); opacity:0.9" fill="url(#sw-gradient-1)" d="M0,342L120,335.7C240,329,480,317,720,266C960,215,1200,127,1440,107.7C1680,89,1920,139,2160,158.3C2400,177,2640,165,2880,183.7C3120,203,3360,253,3600,285C3840,317,4080,329,4320,310.3C4560,291,4800,241,5040,234.3C5280,228,5520,266,5760,285C6000,304,6240,304,6480,291.3C6720,279,6960,253,7200,234.3C7440,215,7680,203,7920,171C8160,139,8400,89,8640,95C8880,101,9120,165,9360,196.3C9600,228,9840,228,10080,215.3C10320,203,10560,177,10800,177.3C11040,177,11280,203,11520,209C11760,215,12000,203,12240,202.7C12480,203,12720,215,12960,209C13200,203,13440,177,13680,145.7C13920,114,14160,76,14400,63.3C14640,51,14880,63,15120,88.7C15360,114,15600,152,15840,190C16080,228,16320,266,16560,285C16800,304,17040,304,17160,304L17280,304L17280,380L17160,380C17040,380,16800,380,16560,380C16320,380,16080,380,15840,380C15600,380,15360,380,15120,380C14880,380,14640,380,14400,380C14160,380,13920,380,13680,380C13440,380,13200,380,12960,380C12720,380,12480,380,12240,380C12000,380,11760,380,11520,380C11280,380,11040,380,10800,380C10560,380,10320,380,10080,380C9840,380,9600,380,9360,380C9120,380,8880,380,8640,380C8400,380,8160,380,7920,380C7680,380,7440,380,7200,380C6960,380,6720,380,6480,380C6240,380,6000,380,5760,380C5520,380,5280,380,5040,380C4800,380,4560,380,4320,380C4080,380,3840,380,3600,380C3360,380,3120,380,2880,380C2640,380,2400,380,2160,380C1920,380,1680,380,1440,380C1200,380,960,380,720,380C480,380,240,380,120,380L0,380Z"/><defs><linearGradient id="sw-gradient-2" x1="0" x2="0" y1="1" y2="0"><stop stop-color="rgba(128.704, 206.405, 97.375, 1)" offset="0%"/><stop stop-color="rgba(255, 179, 11, 1)" offset="100%"/></linearGradient></defs><path style="transform:translate(0, 100px); opacity:0.8" fill="url(#sw-gradient-2)" d="M0,342L120,316.7C240,291,480,241,720,228C960,215,1200,241,1440,253.3C1680,266,1920,266,2160,266C2400,266,2640,266,2880,272.3C3120,279,3360,291,3600,272.3C3840,253,4080,203,4320,196.3C4560,190,4800,228,5040,240.7C5280,253,5520,241,5760,253.3C6000,266,6240,304,6480,285C6720,266,6960,190,7200,190C7440,190,7680,266,7920,304C8160,342,8400,342,8640,342C8880,342,9120,342,9360,316.7C9600,291,9840,241,10080,209C10320,177,10560,165,10800,171C11040,177,11280,203,11520,215.3C11760,228,12000,228,12240,240.7C12480,253,12720,279,12960,285C13200,291,13440,279,13680,266C13920,253,14160,241,14400,228C14640,215,14880,203,15120,171C15360,139,15600,89,15840,82.3C16080,76,16320,114,16560,139.3C16800,165,17040,177,17160,183.7L17280,190L17280,380L17160,380C17040,380,16800,380,16560,380C16320,380,16080,380,15840,380C15600,380,15360,380,15120,380C14880,380,14640,380,14400,380C14160,380,13920,380,13680,380C13440,380,13200,380,12960,380C12720,380,12480,380,12240,380C12000,380,11760,380,11520,380C11280,380,11040,380,10800,380C10560,380,10320,380,10080,380C9840,380,9600,380,9360,380C9120,380,8880,380,8640,380C8400,380,8160,380,7920,380C7680,380,7440,380,7200,380C6960,380,6720,380,6480,380C6240,380,6000,380,5760,380C5520,380,5280,380,5040,380C4800,380,4560,380,4320,380C4080,380,3840,380,3600,380C3360,380,3120,380,2880,380C2640,380,2400,380,2160,380C1920,380,1680,380,1440,380C1200,380,960,380,720,380C480,380,240,380,120,380L0,380Z"/></svg>